<svg xmlns="http://www.w3.org/2000/svg" viewBox="0 0 664.31 91.49"><defs><style>.cls-1{fill:#161616;}</style></defs><title>Asset 2</title><g id="Layer_2" data-name="Layer 2"><g id="Layer_1-2" data-name="Layer 1"><g id="black_wordmark" data-name="black wordmark"><path class="cls-1" d="M14.19,30.71H45.11V44.79H14.19V75.18H0V1.06H45.11V15.14H14.19Z"/><path class="cls-1" d="M107.37,60.25l-5.3,14.93H87.25L113.72,1.06h13.55l26.47,74.12H138.92l-5.29-14.93ZM120.5,22.77l-8.26,24h16.52Z"/><path class="cls-1" d="M256.56,50.4c-.53,15.57-10.7,25.84-28,25.84-17.79,0-27.95-10.91-27.95-27.43V27.42C200.65,10.91,210.81,0,228.6,0c17.26,0,27.43,10.27,28,25.84h-14.3c-.74-7.63-6.46-11.76-13.66-11.76-7.73,0-13.76,4.77-13.76,13.34V48.81c0,8.58,6,13.35,13.76,13.35,7.2,0,12.92-4.13,13.66-11.76Z"/><path class="cls-1" d="M337.45,15.14v60H322.84v-60H302.19V1.06H358.1V15.14Z"/><path class="cls-1" d="M460,48.81c0,16.52-10.17,27.43-28,27.43s-27.95-10.91-27.95-27.43V27.42C404.05,10.91,414.22,0,432,0s28,10.91,28,27.42ZM445.77,27.42c0-8.57-6-13.34-13.77-13.34s-13.76,4.77-13.76,13.34V48.81c0,8.58,6,13.35,13.76,13.35s13.77-4.77,13.77-13.35Z"/><path class="cls-1" d="M528,44.68v30.5H513.85V1.06h31.24c15.25,0,23.4,8.26,23.4,21.81,0,11-5.51,18.64-16,21.07l18.42,31.24h-16.3l-17.9-30.5Zm17.37-29.54H528V30.92h17.37c5.4,0,8.89-2.75,8.89-7.84S550.81,15.14,545.41,15.14Z"/><path class="cls-1" d="M664.31,78.78V91.49H615.6V78.78Z"/></g></g></g></svg>